<mxfile host="app.diagrams.net" modified="2023-06-16T01:26:02.525Z" agent="Mozilla/5.0 (Windows NT 10.0; Win64; x64) AppleWebKit/537.36 (KHTML, like Gecko) Chrome/114.0.0.0 Safari/537.36" etag="X3sMqfdXoGI_VHR7RRwa" version="21.3.8" type="device">
  <diagram name="페이지-1" id="DNCpme31x-sSBYYBs0hs">
    <mxGraphModel dx="1325" dy="683" grid="1" gridSize="10" guides="1" tooltips="1" connect="1" arrows="1" fold="1" page="1" pageScale="1" pageWidth="4681" pageHeight="3300" math="0" shadow="0">
      <root>
        <mxCell id="0" />
        <mxCell id="1" parent="0" />
        <mxCell id="mtFNHIB8ALFiM5DYBXw--8" style="rounded=0;orthogonalLoop=1;jettySize=auto;html=1;entryX=0.581;entryY=-0.027;entryDx=0;entryDy=0;entryPerimeter=0;exitX=0.5;exitY=1;exitDx=0;exitDy=0;" edge="1" parent="1" source="mtFNHIB8ALFiM5DYBXw--1" target="mtFNHIB8ALFiM5DYBXw--2">
          <mxGeometry relative="1" as="geometry" />
        </mxCell>
        <mxCell id="mtFNHIB8ALFiM5DYBXw--9" style="rounded=0;orthogonalLoop=1;jettySize=auto;html=1;entryX=0.5;entryY=0;entryDx=0;entryDy=0;exitX=0.5;exitY=1;exitDx=0;exitDy=0;" edge="1" parent="1" source="mtFNHIB8ALFiM5DYBXw--1" target="mtFNHIB8ALFiM5DYBXw--4">
          <mxGeometry relative="1" as="geometry" />
        </mxCell>
        <mxCell id="mtFNHIB8ALFiM5DYBXw--10" style="rounded=0;orthogonalLoop=1;jettySize=auto;html=1;entryX=0.5;entryY=0;entryDx=0;entryDy=0;exitX=0.5;exitY=1;exitDx=0;exitDy=0;" edge="1" parent="1" source="mtFNHIB8ALFiM5DYBXw--1" target="mtFNHIB8ALFiM5DYBXw--5">
          <mxGeometry relative="1" as="geometry" />
        </mxCell>
        <mxCell id="mtFNHIB8ALFiM5DYBXw--11" style="rounded=0;orthogonalLoop=1;jettySize=auto;html=1;exitX=0.5;exitY=1;exitDx=0;exitDy=0;" edge="1" parent="1" source="mtFNHIB8ALFiM5DYBXw--1" target="mtFNHIB8ALFiM5DYBXw--6">
          <mxGeometry relative="1" as="geometry" />
        </mxCell>
        <mxCell id="mtFNHIB8ALFiM5DYBXw--12" style="rounded=0;orthogonalLoop=1;jettySize=auto;html=1;entryX=0.5;entryY=0;entryDx=0;entryDy=0;exitX=0.5;exitY=1;exitDx=0;exitDy=0;" edge="1" parent="1" source="mtFNHIB8ALFiM5DYBXw--1" target="mtFNHIB8ALFiM5DYBXw--7">
          <mxGeometry relative="1" as="geometry" />
        </mxCell>
        <mxCell id="mtFNHIB8ALFiM5DYBXw--1" value="상품정보" style="rounded=1;arcSize=10;whiteSpace=wrap;html=1;align=center;fillColor=#60a917;fontColor=#ffffff;strokeColor=#2D7600;" vertex="1" parent="1">
          <mxGeometry x="510" y="670" width="100" height="40" as="geometry" />
        </mxCell>
        <mxCell id="mtFNHIB8ALFiM5DYBXw--2" value="상품코드" style="ellipse;whiteSpace=wrap;html=1;align=center;fontStyle=4;fillColor=#6a00ff;strokeColor=#3700CC;fontColor=#ffffff;" vertex="1" parent="1">
          <mxGeometry x="290" y="800" width="100" height="40" as="geometry" />
        </mxCell>
        <mxCell id="mtFNHIB8ALFiM5DYBXw--4" value="상품명" style="ellipse;whiteSpace=wrap;html=1;align=center;" vertex="1" parent="1">
          <mxGeometry x="400" y="800" width="100" height="40" as="geometry" />
        </mxCell>
        <mxCell id="mtFNHIB8ALFiM5DYBXw--5" value="품목" style="ellipse;whiteSpace=wrap;html=1;align=center;" vertex="1" parent="1">
          <mxGeometry x="510" y="800" width="100" height="40" as="geometry" />
        </mxCell>
        <mxCell id="mtFNHIB8ALFiM5DYBXw--6" value="매입단가" style="ellipse;whiteSpace=wrap;html=1;align=center;" vertex="1" parent="1">
          <mxGeometry x="620" y="800" width="100" height="40" as="geometry" />
        </mxCell>
        <mxCell id="mtFNHIB8ALFiM5DYBXw--7" value="매출단가" style="ellipse;whiteSpace=wrap;html=1;align=center;" vertex="1" parent="1">
          <mxGeometry x="730" y="800" width="100" height="40" as="geometry" />
        </mxCell>
        <mxCell id="mtFNHIB8ALFiM5DYBXw--13" style="rounded=0;orthogonalLoop=1;jettySize=auto;html=1;entryX=0.581;entryY=-0.027;entryDx=0;entryDy=0;entryPerimeter=0;exitX=0.5;exitY=1;exitDx=0;exitDy=0;" edge="1" source="mtFNHIB8ALFiM5DYBXw--18" target="mtFNHIB8ALFiM5DYBXw--19" parent="1">
          <mxGeometry relative="1" as="geometry" />
        </mxCell>
        <mxCell id="mtFNHIB8ALFiM5DYBXw--14" style="rounded=0;orthogonalLoop=1;jettySize=auto;html=1;entryX=0.5;entryY=0;entryDx=0;entryDy=0;exitX=0.5;exitY=1;exitDx=0;exitDy=0;" edge="1" source="mtFNHIB8ALFiM5DYBXw--18" target="mtFNHIB8ALFiM5DYBXw--20" parent="1">
          <mxGeometry relative="1" as="geometry" />
        </mxCell>
        <mxCell id="mtFNHIB8ALFiM5DYBXw--15" style="rounded=0;orthogonalLoop=1;jettySize=auto;html=1;entryX=0.5;entryY=0;entryDx=0;entryDy=0;exitX=0.5;exitY=1;exitDx=0;exitDy=0;" edge="1" source="mtFNHIB8ALFiM5DYBXw--18" target="mtFNHIB8ALFiM5DYBXw--21" parent="1">
          <mxGeometry relative="1" as="geometry" />
        </mxCell>
        <mxCell id="mtFNHIB8ALFiM5DYBXw--16" style="rounded=0;orthogonalLoop=1;jettySize=auto;html=1;exitX=0.5;exitY=1;exitDx=0;exitDy=0;" edge="1" source="mtFNHIB8ALFiM5DYBXw--18" target="mtFNHIB8ALFiM5DYBXw--22" parent="1">
          <mxGeometry relative="1" as="geometry" />
        </mxCell>
        <mxCell id="mtFNHIB8ALFiM5DYBXw--18" value="고객정보" style="rounded=1;arcSize=10;whiteSpace=wrap;html=1;align=center;fillColor=#60a917;fontColor=#ffffff;strokeColor=#2D7600;" vertex="1" parent="1">
          <mxGeometry x="1070" y="670" width="100" height="40" as="geometry" />
        </mxCell>
        <mxCell id="mtFNHIB8ALFiM5DYBXw--19" value="고객ID" style="ellipse;whiteSpace=wrap;html=1;align=center;fontStyle=4;fillColor=#6a00ff;strokeColor=#3700CC;fontColor=#ffffff;" vertex="1" parent="1">
          <mxGeometry x="900" y="800" width="100" height="40" as="geometry" />
        </mxCell>
        <mxCell id="mtFNHIB8ALFiM5DYBXw--20" value="고객이름" style="ellipse;whiteSpace=wrap;html=1;align=center;" vertex="1" parent="1">
          <mxGeometry x="1010" y="800" width="100" height="40" as="geometry" />
        </mxCell>
        <mxCell id="mtFNHIB8ALFiM5DYBXw--21" value="전화번호" style="ellipse;whiteSpace=wrap;html=1;align=center;" vertex="1" parent="1">
          <mxGeometry x="1120" y="800" width="100" height="40" as="geometry" />
        </mxCell>
        <mxCell id="mtFNHIB8ALFiM5DYBXw--22" value="주소" style="ellipse;whiteSpace=wrap;html=1;align=center;" vertex="1" parent="1">
          <mxGeometry x="1230" y="800" width="100" height="40" as="geometry" />
        </mxCell>
        <mxCell id="mtFNHIB8ALFiM5DYBXw--24" value="판매내역" style="shape=rhombus;perimeter=rhombusPerimeter;whiteSpace=wrap;html=1;align=center;" vertex="1" parent="1">
          <mxGeometry x="800" y="440" width="120" height="60" as="geometry" />
        </mxCell>
        <mxCell id="mtFNHIB8ALFiM5DYBXw--29" value="" style="endArrow=none;html=1;rounded=0;entryX=0.5;entryY=1;entryDx=0;entryDy=0;exitX=0.5;exitY=0;exitDx=0;exitDy=0;" edge="1" parent="1" source="mtFNHIB8ALFiM5DYBXw--1" target="mtFNHIB8ALFiM5DYBXw--24">
          <mxGeometry relative="1" as="geometry">
            <mxPoint x="170" y="570" as="sourcePoint" />
            <mxPoint x="330" y="570" as="targetPoint" />
          </mxGeometry>
        </mxCell>
        <mxCell id="mtFNHIB8ALFiM5DYBXw--30" value="N" style="resizable=0;html=1;whiteSpace=wrap;align=right;verticalAlign=bottom;" connectable="0" vertex="1" parent="mtFNHIB8ALFiM5DYBXw--29">
          <mxGeometry x="1" relative="1" as="geometry" />
        </mxCell>
        <mxCell id="mtFNHIB8ALFiM5DYBXw--32" value="" style="endArrow=none;html=1;rounded=0;entryX=0.5;entryY=1;entryDx=0;entryDy=0;exitX=0.5;exitY=0;exitDx=0;exitDy=0;" edge="1" parent="1" source="mtFNHIB8ALFiM5DYBXw--18" target="mtFNHIB8ALFiM5DYBXw--24">
          <mxGeometry relative="1" as="geometry">
            <mxPoint x="570" y="680" as="sourcePoint" />
            <mxPoint x="870" y="510" as="targetPoint" />
          </mxGeometry>
        </mxCell>
        <mxCell id="mtFNHIB8ALFiM5DYBXw--33" value="N" style="resizable=0;html=1;whiteSpace=wrap;align=right;verticalAlign=bottom;" connectable="0" vertex="1" parent="mtFNHIB8ALFiM5DYBXw--32">
          <mxGeometry x="1" relative="1" as="geometry" />
        </mxCell>
        <mxCell id="mtFNHIB8ALFiM5DYBXw--34" value="거래일자" style="ellipse;whiteSpace=wrap;html=1;align=center;" vertex="1" parent="1">
          <mxGeometry x="650" y="300" width="100" height="40" as="geometry" />
        </mxCell>
        <mxCell id="mtFNHIB8ALFiM5DYBXw--35" value="거래시각" style="ellipse;whiteSpace=wrap;html=1;align=center;" vertex="1" parent="1">
          <mxGeometry x="760" y="300" width="100" height="40" as="geometry" />
        </mxCell>
        <mxCell id="mtFNHIB8ALFiM5DYBXw--36" value="수량" style="ellipse;whiteSpace=wrap;html=1;align=center;" vertex="1" parent="1">
          <mxGeometry x="870" y="300" width="100" height="40" as="geometry" />
        </mxCell>
        <mxCell id="mtFNHIB8ALFiM5DYBXw--37" value="판매단가" style="ellipse;whiteSpace=wrap;html=1;align=center;" vertex="1" parent="1">
          <mxGeometry x="990" y="300" width="100" height="40" as="geometry" />
        </mxCell>
        <mxCell id="mtFNHIB8ALFiM5DYBXw--38" value="판매금액" style="ellipse;whiteSpace=wrap;html=1;align=center;" vertex="1" parent="1">
          <mxGeometry x="1110" y="300" width="100" height="40" as="geometry" />
        </mxCell>
        <mxCell id="mtFNHIB8ALFiM5DYBXw--39" value="SEQ" style="ellipse;whiteSpace=wrap;html=1;align=center;fontStyle=4;fillColor=#6a00ff;strokeColor=#3700CC;fontColor=#ffffff;" vertex="1" parent="1">
          <mxGeometry x="540" y="300" width="100" height="40" as="geometry" />
        </mxCell>
        <mxCell id="mtFNHIB8ALFiM5DYBXw--40" style="rounded=0;orthogonalLoop=1;jettySize=auto;html=1;entryX=0.5;entryY=1;entryDx=0;entryDy=0;exitX=0.5;exitY=0;exitDx=0;exitDy=0;" edge="1" parent="1" source="mtFNHIB8ALFiM5DYBXw--24" target="mtFNHIB8ALFiM5DYBXw--39">
          <mxGeometry relative="1" as="geometry">
            <mxPoint x="672" y="400" as="sourcePoint" />
            <mxPoint x="460" y="489" as="targetPoint" />
          </mxGeometry>
        </mxCell>
        <mxCell id="mtFNHIB8ALFiM5DYBXw--41" style="rounded=0;orthogonalLoop=1;jettySize=auto;html=1;entryX=0.5;entryY=1;entryDx=0;entryDy=0;exitX=0.5;exitY=0;exitDx=0;exitDy=0;" edge="1" parent="1" source="mtFNHIB8ALFiM5DYBXw--24" target="mtFNHIB8ALFiM5DYBXw--34">
          <mxGeometry relative="1" as="geometry">
            <mxPoint x="870" y="450" as="sourcePoint" />
            <mxPoint x="470" y="499" as="targetPoint" />
          </mxGeometry>
        </mxCell>
        <mxCell id="mtFNHIB8ALFiM5DYBXw--42" style="rounded=0;orthogonalLoop=1;jettySize=auto;html=1;entryX=0.5;entryY=1;entryDx=0;entryDy=0;exitX=0.5;exitY=0;exitDx=0;exitDy=0;" edge="1" parent="1" source="mtFNHIB8ALFiM5DYBXw--24" target="mtFNHIB8ALFiM5DYBXw--35">
          <mxGeometry relative="1" as="geometry">
            <mxPoint x="880" y="460" as="sourcePoint" />
            <mxPoint x="480" y="509" as="targetPoint" />
          </mxGeometry>
        </mxCell>
        <mxCell id="mtFNHIB8ALFiM5DYBXw--43" style="rounded=0;orthogonalLoop=1;jettySize=auto;html=1;entryX=0.5;entryY=1;entryDx=0;entryDy=0;exitX=0.5;exitY=0;exitDx=0;exitDy=0;" edge="1" parent="1" source="mtFNHIB8ALFiM5DYBXw--24" target="mtFNHIB8ALFiM5DYBXw--36">
          <mxGeometry relative="1" as="geometry">
            <mxPoint x="890" y="470" as="sourcePoint" />
            <mxPoint x="490" y="519" as="targetPoint" />
          </mxGeometry>
        </mxCell>
        <mxCell id="mtFNHIB8ALFiM5DYBXw--44" style="rounded=0;orthogonalLoop=1;jettySize=auto;html=1;entryX=0.5;entryY=1;entryDx=0;entryDy=0;exitX=0.5;exitY=0;exitDx=0;exitDy=0;" edge="1" parent="1" source="mtFNHIB8ALFiM5DYBXw--24" target="mtFNHIB8ALFiM5DYBXw--38">
          <mxGeometry relative="1" as="geometry">
            <mxPoint x="900" y="480" as="sourcePoint" />
            <mxPoint x="500" y="529" as="targetPoint" />
          </mxGeometry>
        </mxCell>
        <mxCell id="mtFNHIB8ALFiM5DYBXw--45" style="rounded=0;orthogonalLoop=1;jettySize=auto;html=1;entryX=0.5;entryY=1;entryDx=0;entryDy=0;exitX=0.5;exitY=0;exitDx=0;exitDy=0;" edge="1" parent="1" source="mtFNHIB8ALFiM5DYBXw--24" target="mtFNHIB8ALFiM5DYBXw--37">
          <mxGeometry relative="1" as="geometry">
            <mxPoint x="900" y="480" as="sourcePoint" />
            <mxPoint x="870" y="350" as="targetPoint" />
          </mxGeometry>
        </mxCell>
      </root>
    </mxGraphModel>
  </diagram>
</mxfile>
